<?xml version="1.0" encoding="UTF-8"?>
<svg id="Layer_1" data-name="Layer 1" xmlns="http://www.w3.org/2000/svg" xmlns:xlink="http://www.w3.org/1999/xlink" viewBox="0 0 2042.57 530.32">
  <defs>
    <style>
      .cls-1 {
        fill: #fff;
      }

      .cls-2 {
        fill: url(#New_Gradient_Swatch);
      }

      .cls-3 {
        clip-path: url(#clippath);
      }

      .cls-4 {
        fill: none;
      }
    </style>
    <clipPath id="clippath">
      <path class="cls-4" d="M343.3,27.14L214.05,213.71c20.71,0,42.31-.01,63.69-.01v130.39c-75.06,70.89-156.65,147.95-192.17,181.51-6.92,6.55-17.84,6.23-24.39-.7-5.7-6.03-6.19-15.11-1.64-21.67l129.24-186.58c-61.9,0-131.64,.04-180.18,.03-7.76-.01-11.53-9.49-5.89-14.81C76.71,231.97,258.97,59.82,317.27,4.76c15.35-13.8,37.37,5.06,26.03,22.37Z"/>
    </clipPath>
    <linearGradient id="New_Gradient_Swatch" data-name="New Gradient Swatch" x1="-99.66" y1="268.72" x2="446.09" y2="268.72" gradientUnits="userSpaceOnUse">
      <stop offset=".02" stop-color="#78bbd0"/>
      <stop offset=".24" stop-color="#6eb6cd"/>
      <stop offset=".61" stop-color="#54abc5"/>
      <stop offset="1" stop-color="#339dbc"/>
    </linearGradient>
  </defs>
  <g class="cls-3">
    <rect class="cls-2" x="-99.66" y="-52.53" width="545.75" height="642.5"/>
  </g>
  <g>
    <path class="cls-1" d="M358.08,383.74h-29.05V133.89h139.11v25.63h-110.05v91.6h103.39v25.46h-103.39v107.15Z"/>
    <path class="cls-1" d="M533.93,383.74h-28.54V117.83h28.54V383.74Z"/>
    <path class="cls-1" d="M663.81,193.36c22.33,0,38.9,5.01,49.73,15.04,10.82,10.03,16.24,26.03,16.24,48.02v127.32h-20.68l-5.47-27.68h-1.37c-5.24,6.84-10.71,12.56-16.41,17.17-5.7,4.61-12.28,8.09-19.74,10.42-7.46,2.33-16.61,3.5-27.43,3.5-11.39,0-21.51-2-30.33-5.98-8.83-3.99-15.78-10.02-20.85-18.11-5.07-8.09-7.61-18.34-7.61-30.76,0-18.68,7.41-33.04,22.22-43.07,14.81-10.02,37.37-15.49,67.67-16.41l32.3-1.37v-11.45c0-16.18-3.48-27.51-10.42-34.01-6.95-6.49-16.75-9.74-29.39-9.74-9.8,0-19.14,1.43-28.03,4.27-8.89,2.85-17.32,6.21-25.29,10.08l-8.72-21.53c8.43-4.33,18.11-8.03,29.05-11.11s22.44-4.61,34.52-4.61Zm37.94,98.09l-28.54,1.2c-23.36,.91-39.82,4.73-49.39,11.45-9.57,6.72-14.35,16.23-14.35,28.54,0,10.71,3.25,18.63,9.74,23.75s15.09,7.69,25.8,7.69c16.63,0,30.25-4.61,40.84-13.84s15.89-23.07,15.89-41.53v-17.26Z"/>
    <path class="cls-1" d="M909.38,332.47c0,11.96-2.99,22.02-8.97,30.16-5.98,8.15-14.53,14.27-25.63,18.37-11.11,4.1-24.35,6.15-39.73,6.15-13.1,0-24.44-1.03-34.01-3.08-9.57-2.05-17.94-4.96-25.12-8.72v-26.15c7.63,3.76,16.75,7.18,27.34,10.25,10.59,3.08,21.42,4.61,32.47,4.61,16.18,0,27.91-2.62,35.2-7.86,7.29-5.24,10.94-12.36,10.94-21.36,0-5.13-1.45-9.66-4.36-13.59-2.91-3.93-7.78-7.75-14.61-11.45-6.84-3.7-16.29-7.78-28.37-12.22-11.96-4.56-22.3-9.08-31.02-13.59-8.72-4.5-15.44-10-20.17-16.49-4.73-6.49-7.09-14.92-7.09-25.29,0-15.83,6.41-28,19.23-36.49,12.82-8.49,29.65-12.73,50.5-12.73,11.28,0,21.84,1.11,31.7,3.33,9.85,2.22,19.05,5.21,27.6,8.97l-9.57,22.73c-7.75-3.3-16.01-6.09-24.78-8.37-8.77-2.28-17.72-3.42-26.83-3.42-13.1,0-23.16,2.17-30.16,6.49-7.01,4.33-10.51,10.25-10.51,17.77,0,5.81,1.62,10.59,4.87,14.35s8.46,7.29,15.64,10.6c7.18,3.31,16.63,7.18,28.37,11.62,11.73,4.33,21.87,8.8,30.42,13.42,8.54,4.61,15.12,10.2,19.74,16.75,4.61,6.55,6.92,14.95,6.92,25.21Z"/>
    <path class="cls-1" d="M983.38,117.83v79.46c0,4.56-.11,9.14-.34,13.76-.23,4.61-.63,8.86-1.2,12.73h1.88c3.87-6.61,8.8-12.16,14.78-16.66,5.98-4.5,12.79-7.92,20.42-10.25,7.63-2.33,15.72-3.5,24.27-3.5,15.04,0,27.6,2.39,37.68,7.18,10.08,4.79,17.66,12.19,22.73,22.22,5.07,10.03,7.6,23.01,7.6,38.96v122.02h-28.03v-120.14c0-15.61-3.56-27.28-10.68-35.03-7.12-7.75-18.03-11.62-32.73-11.62-13.9,0-24.98,2.65-33.24,7.95-8.26,5.3-14.18,13.07-17.77,23.33-3.59,10.25-5.38,22.79-5.38,37.6v97.92h-28.37V117.83h28.37Z"/>
    <path class="cls-1" d="M1173.93,383.74V133.89h29.05v223.87h110.91v25.98h-139.96Z"/>
    <path class="cls-1" d="M1424.45,193.02c15.95,0,29.62,3.53,41.01,10.6,11.39,7.07,20.11,16.95,26.15,29.65,6.04,12.71,9.06,27.54,9.06,44.52v17.6h-129.37c.34,21.99,5.81,38.74,16.41,50.24,10.6,11.51,25.52,17.26,44.77,17.26,11.85,0,22.33-1.08,31.44-3.25,9.11-2.16,18.57-5.35,28.37-9.57v24.95c-9.46,4.22-18.83,7.29-28.11,9.23-9.29,1.94-20.25,2.91-32.9,2.91-18,0-33.7-3.67-47.08-11.02-13.39-7.35-23.78-18.14-31.19-32.38-7.41-14.24-11.11-31.67-11.11-52.29s3.39-37.62,10.17-52.38c6.78-14.75,16.35-26.12,28.71-34.09,12.36-7.97,26.92-11.96,43.66-11.96Zm-.34,23.24c-15.15,0-27.23,4.96-36.23,14.87-9,9.91-14.36,23.75-16.06,41.53h99.12c-.11-11.16-1.85-20.99-5.21-29.48-3.36-8.49-8.46-15.09-15.29-19.82-6.84-4.73-15.61-7.09-26.32-7.09Z"/>
    <path class="cls-1" d="M1618.93,193.36c22.33,0,38.9,5.01,49.73,15.04,10.82,10.03,16.24,26.03,16.24,48.02v127.32h-20.68l-5.47-27.68h-1.37c-5.24,6.84-10.71,12.56-16.41,17.17-5.7,4.61-12.28,8.09-19.74,10.42-7.46,2.33-16.61,3.5-27.43,3.5-11.39,0-21.51-2-30.33-5.98-8.83-3.99-15.78-10.02-20.85-18.11-5.07-8.09-7.61-18.34-7.61-30.76,0-18.68,7.41-33.04,22.22-43.07,14.81-10.02,37.37-15.49,67.67-16.41l32.3-1.37v-11.45c0-16.18-3.48-27.51-10.42-34.01-6.95-6.49-16.75-9.74-29.39-9.74-9.8,0-19.14,1.43-28.03,4.27-8.89,2.85-17.32,6.21-25.29,10.08l-8.72-21.53c8.43-4.33,18.11-8.03,29.05-11.11s22.44-4.61,34.52-4.61Zm37.94,98.09l-28.54,1.2c-23.36,.91-39.82,4.73-49.39,11.45-9.57,6.72-14.35,16.23-14.35,28.54,0,10.71,3.25,18.63,9.74,23.75s15.09,7.69,25.8,7.69c16.63,0,30.25-4.61,40.84-13.84s15.89-23.07,15.89-41.53v-17.26Z"/>
    <path class="cls-1" d="M1828.45,193.02c3.76,0,7.69,.2,11.79,.6,4.1,.4,7.75,.94,10.94,1.62l-3.59,26.32c-3.08-.8-6.49-1.42-10.25-1.88-3.76-.45-7.29-.68-10.6-.68-7.52,0-14.61,1.51-21.28,4.53-6.67,3.02-12.5,7.35-17.52,12.99-5.01,5.64-8.95,12.42-11.79,20.34-2.85,7.92-4.27,16.72-4.27,26.4v100.49h-28.54V196.44h23.58l3.08,34.52h1.2c3.87-6.95,8.54-13.3,14.01-19.05,5.47-5.75,11.82-10.34,19.05-13.76,7.23-3.42,15.29-5.13,24.18-5.13Z"/>
    <path class="cls-1" d="M1975.07,193.02c22.22,0,39.02,5.44,50.41,16.32,11.39,10.88,17.09,28.34,17.09,52.38v122.02h-28.03v-120.14c0-15.61-3.56-27.28-10.68-35.03-7.12-7.75-18.03-11.62-32.73-11.62-20.74,0-35.32,5.87-43.75,17.6-8.43,11.74-12.65,28.77-12.65,51.1v98.09h-28.37V196.44h22.9l4.27,27h1.54c3.99-6.61,9.06-12.16,15.21-16.66,6.15-4.5,13.04-7.92,20.68-10.25,7.63-2.33,15.66-3.5,24.1-3.5Z"/>
  </g>
</svg>